<svg xmlns="http://www.w3.org/2000/svg" viewBox="0 0 512 512" width="512" height="512">
  <defs>
    <linearGradient id="sky" x1="0" y1="0" x2="1" y2="1">
      <stop offset="0" stop-color="#312c13"/>
      <stop offset="0.58" stop-color="#5b5024"/>
      <stop offset="1" stop-color="#f5c518"/>
    </linearGradient>
    <radialGradient id="glow" cx="50%" cy="38%" r="54%">
      <stop offset="0" stop-color="#e4ebcc" stop-opacity="0.5"/>
      <stop offset="0.42" stop-color="#f5c518" stop-opacity="0.24"/>
      <stop offset="1" stop-color="#312c13" stop-opacity="0"/>
    </radialGradient>
    <filter id="softShadow" x="-20%" y="-20%" width="140%" height="140%">
      <feDropShadow dx="0" dy="12.8" stdDeviation="10.2" flood-color="#000000" flood-opacity="0.45"/>
    </filter>
  </defs>
  <rect width="512" height="512" fill="url(#sky)"/>
  <rect width="512" height="512" fill="url(#glow)"/>
  <circle cx="92.2" cy="102.4" r="46.1" fill="#e4ebcc" opacity="0.18"/>
  <polygon points="0,512 0,355 85,373 171,315 256,321 341,323 427,341 512,309 512,512" fill="#584b14" opacity="0.9"/>
  <polygon points="0,512 0,354 85,410 171,391 256,328 341,389 427,389 512,375 512,512" fill="#746015" opacity="0.95"/>
  <polygon points="0,512 0,423 85,436 171,395 256,427 341,435 427,428 512,404 512,512" fill="#41370e" opacity="0.98"/>
  <g filter="url(#softShadow)">
    <circle cx="256.0" cy="194.6" r="122.9" fill="#08111f" opacity="0.72"/>
    <circle cx="256.0" cy="194.6" r="95.8" fill="#f5c518" opacity="0.72"/>
    <path d="M 176.1 204.4 L 256.0 111.0 L 335.9 204.4 L 256.0 275.7 Z" fill="#e4ebcc" opacity="0.3"/>
    <text x="256.0" y="216.7" text-anchor="middle" font-family="Arial, sans-serif" font-size="88.5" font-weight="900" fill="#ffffff">GO</text>
  </g>
  <g opacity="0.36">
    <path d="M 41.0 450.6 C 143.4 399.4, 297.0 496.6, 471.0 399.4" stroke="#e4ebcc" stroke-width="9.2" fill="none"/>
    <path d="M 20.5 61.4 L 143.4 25.6 L 266.2 61.4 L 389.1 25.6 L 491.5 56.3" stroke="#ffffff" stroke-width="2" fill="none" opacity="0.28"/>
  </g>
</svg>
