<svg xmlns="http://www.w3.org/2000/svg" viewBox="0 0 512 384" width="512" height="384">
  <defs>
    <linearGradient id="sky" x1="0" y1="0" x2="1" y2="1">
      <stop offset="0" stop-color="#2e1f15"/>
      <stop offset="0.58" stop-color="#563927"/>
      <stop offset="1" stop-color="#e67e22"/>
    </linearGradient>
    <radialGradient id="glow" cx="50%" cy="38%" r="54%">
      <stop offset="0" stop-color="#e1dcce" stop-opacity="0.5"/>
      <stop offset="0.42" stop-color="#e67e22" stop-opacity="0.24"/>
      <stop offset="1" stop-color="#2e1f15" stop-opacity="0"/>
    </radialGradient>
    <filter id="softShadow" x="-20%" y="-20%" width="140%" height="140%">
      <feDropShadow dx="0" dy="9.6" stdDeviation="7.7" flood-color="#000000" flood-opacity="0.45"/>
    </filter>
  </defs>
  <rect width="512" height="384" fill="url(#sky)"/>
  <rect width="512" height="384" fill="url(#glow)"/>
  <circle cx="92.2" cy="76.8" r="34.6" fill="#e1dcce" opacity="0.18"/>
  <polygon points="0,384 0,259 85,250 171,220 256,226 341,286 427,267 512,205 512,384" fill="#533218" opacity="0.9"/>
  <polygon points="0,384 0,287 85,302 171,263 256,279 341,300 427,264 512,268 512,384" fill="#6d3f19" opacity="0.95"/>
  <polygon points="0,384 0,337 85,302 171,288 256,327 341,328 427,305 512,306 512,384" fill="#3d2410" opacity="0.98"/>
  <g filter="url(#softShadow)">
    <circle cx="256.0" cy="145.9" r="92.2" fill="#08111f" opacity="0.72"/>
    <circle cx="256.0" cy="145.9" r="71.9" fill="#e67e22" opacity="0.72"/>
    <path d="M 196.1 153.3 L 256.0 83.3 L 315.9 153.3 L 256.0 206.7 Z" fill="#e1dcce" opacity="0.3"/>
    <text x="256.0" y="162.5" text-anchor="middle" font-family="Arial, sans-serif" font-size="66.4" font-weight="900" fill="#ffffff">A</text>
  </g>
  <g opacity="0.36">
    <path d="M 41.0 337.9 C 143.4 299.5, 297.0 372.5, 471.0 299.5" stroke="#e1dcce" stroke-width="6.9" fill="none"/>
    <path d="M 20.5 46.1 L 143.4 19.2 L 266.2 46.1 L 389.1 19.2 L 491.5 42.2" stroke="#ffffff" stroke-width="2" fill="none" opacity="0.28"/>
  </g>
</svg>
