<svg xmlns="http://www.w3.org/2000/svg" viewBox="0 0 512 512" width="512" height="512">
  <rect width="512" height="512" rx="64" fill="#1a3a5c"/>
  <circle cx="256" cy="240" r="180" fill="none" stroke="#8b6914" stroke-width="10"/>
  <!-- Ship hull -->
  <path d="M256 100 L346 230 L338 310 L310 350 L202 350 L174 310 L166 230 Z" fill="#5c3a1e" stroke="#8b6914" stroke-width="5"/>
  <!-- Sail -->
  <path d="M190 150 Q170 230 200 300 L312 300 Q342 230 322 150 Z" fill="#f0d9a0" stroke="#c4a035" stroke-width="3"/>
  <!-- Skull -->
  <circle cx="256" cy="218" r="38" fill="#fff"/>
  <circle cx="244" cy="210" r="10" fill="#1a3a5c"/>
  <circle cx="268" cy="210" r="10" fill="#1a3a5c"/>
  <path d="M238 238 L246 228 L256 238 L266 228 L274 238" fill="none" stroke="#1a3a5c" stroke-width="4"/>
  <!-- Crossbones -->
  <path d="M180 340 L332 400 M332 340 L180 400" stroke="#f0d9a0" stroke-width="12" stroke-linecap="round"/>
  <!-- Gold text -->
  <text x="256" y="470" text-anchor="middle" font-family="Georgia,serif" font-size="48" font-weight="bold" fill="#ffd700">CORSAIR'S FATE</text>
</svg>
