<svg xmlns="http://www.w3.org/2000/svg" viewBox="0 0 192 192" width="192" height="192">
  <rect width="192" height="192" rx="24" fill="#1a3a5c"/>
  <circle cx="96" cy="96" r="72" fill="none" stroke="#8b6914" stroke-width="6"/>
  <!-- Ship hull -->
  <path d="M96 50 L130 100 L126 130 L110 145 L82 145 L66 130 L62 100 Z" fill="#5c3a1e" stroke="#8b6914" stroke-width="3"/>
  <!-- Sail -->
  <path d="M72 70 Q64 95 76 120 L116 120 Q128 95 120 70 Z" fill="#f0d9a0" stroke="#c4a035" stroke-width="2"/>
  <!-- Skull -->
  <circle cx="96" cy="92" r="14" fill="#fff"/>
  <circle cx="90" cy="88" r="4" fill="#1a3a5c"/>
  <circle cx="102" cy="88" r="4" fill="#1a3a5c"/>
  <path d="M88 100 L92 96 L96 100 L100 96 L104 100" fill="none" stroke="#1a3a5c" stroke-width="2"/>
  <!-- Crossbones -->
  <path d="M68 135 L124 155 M124 135 L68 155" stroke="#f0d9a0" stroke-width="5" stroke-linecap="round"/>
  <!-- Gold text -->
  <text x="96" y="178" text-anchor="middle" font-family="Georgia,serif" font-size="18" font-weight="bold" fill="#ffd700">CORSAIR</text>
</svg>
